General
      Complete name : One.Flew.Over.the.Cuckoo's.Nest.1975.BRRip.H264.AAC.5.1ch.Gopo.mp4
      Format : MPEG-4
      Format profile : Base Media
      Codec ID : isom
      File size : 2.24 GiB
      Duration : 2h 13mn
      Overall bit rate : 2 400 Kbps
      Encoded date : UTC 2009-12-28 07:30:28
      Tagged date : UTC 2009-12-28 07:30:28
      Writing application : Yamb 2.1.0.0 [http://yamb.unite-video.com]
   Video #1
      ID : 1
      Format : AVC
      Format/Info : Advanced Video Codec
      Format profile : High@L4.1
      Format settings, CABAC : Yes
      Format settings, ReFrames : 5 frames
      Codec ID : avc1
      Codec ID/Info : Advanced Video Coding
      Duration : 2h 13mn
      Bit rate mode : Variable
      Bit rate : 2 076 Kbps
      Maximum bit rate : 11.7 Mbps
      Width : 1 280 pixels
      Height : 720 pixels
      Display aspect ratio : 16:9
      Frame rate mode : Constant
      Frame rate : 23.976 fps
      Resolution : 24 bits
      Colorimetry : 4:2:0
      Scan type : Progressive
      Bits/(Pixel*Frame) : 0.094
      Stream size : 1.94 GiB (87%)
      Writing library : x264 core 79 r1360 528c100
      Encoding settings : cabac=1 / ref=5 / deblock=1:0:0 / analyse=0x3:0x113 / me=umh / subme=8 / psy=1 / psy_rd=1.0:0.0 / mixed_ref=1 / me_range=16 / chroma_me=1 / trellis=2 / 8x8dct=1 / cqm=0 / deadzone=21,11 / chroma_qp_offset=-2 / threads=1 / nr=0 / decimate=1 / mbaff=0 / constrained_intra=0 / bframes=3 / b_pyramid=0 / b_adapt=2 / b_bias=0 / direct=3 / wpredb=1 / wpredp=2 / keyint=250 / keyint_min=25 / scenecut=40 / rc_lookahead=30 / rc=2pass / mbtree=1 / bitrate=2076 / ratetol=1.0 / qcomp=0.50 / qpmin=10 / qpmax=51 / qpstep=4 / cplxblur=20.0 / qblur=0.5 / vbv_maxrate=24000 / vbv_bufsize=24000 / ip_ratio=1.10 / aq=1:1.00
      Encoded date : UTC 2009-12-26 05:33:57
      Tagged date : UTC 2009-12-28 07:33:13
   Audio #2
      ID : 2
      Format : AAC
      Format/Info : Advanced Audio Codec
      Format version : Version 4
      Format profile : LC
      Format settings, SBR : No
      Codec ID : 40
      Duration : 2h 13mn
      Bit rate mode : Variable
      Bit rate : 320 Kbps
      Maximum bit rate : 451 Kbps
      Channel(s) : 6 channels
      Channel positions : Front: L C R, Rear: L R, LFE
      Sampling rate : 48.0 KHz
      Resolution : 16 bits
      Stream size : 306 MiB (13%)
      Encoded date : UTC 2009-12-28 07:32:50
      Tagged date : UTC 2009-12-28 07:33:13
	Sample : YES
	Subtitle : English,Romanian

PLOT

McMurphy thinks he can get out of doing work while in prison by pretending to be mad. His plan backfires when he is sent to a mental asylum. He tries to liven the place up a bit by playing card games and basketball with his fellow inmates, but the head nurse is after him at every turn.
Director: Milos Forman
CASTING 
     
      Michael Berryman	... 	Ellis
	Peter Brocco	... 	Col. Matterson
	Dean R. Brooks	... 	Dr. Spivey
	Alonzo Brown	... 	Miller
	Scatman Crothers	... 	Turkle
	Mwako Cumbuka	... 	Warren
	Danny DeVito	... 	Martini
	William Duell	... 	Jim Sefelt
	Josip Elic	... 	Bancini
	Lan Fendors	... 	Nurse Itsu
	Louise Fletcher	... 	Nurse Ratched
	Nathan George	... 	Washington
	Ken Kenny	... 	Beans Garfield
	Mel Lambert	... 	Harbor Master
	Sydney Lassick	... 	Charley Cheswick

SOURCE: One.Flew.Over.The.Cuckoo's.Nest.1080p.BluRay.x264-Grond.mkv

Notes: For best performance I suggest you to use KMPlayer(find it with google) for playback
I haven't tested the movies on a PS3 or Xbox or other devices than PC because I don't own one of them but feel free to test them if you have the oportunity.
